/* XPM */
static char *_caba4bfc1b646f297dd200bb451cbe2oOkTXaKOgWHuqPK3[] = {
/* columns rows colors chars-per-pixel */
"32 32 232 2 ",
"   c None",
".  c #020104",
"X  c #01000B",
"o  c #030112",
"O  c #0A011F",
"+  c #02002D",
"@  c #0D032B",
"#  c #080224",
"$  c #16092C",
"%  c #120331",
"&  c #180736",
"*  c #1F1037",
"=  c #0E0534",
"-  c #2A1928",
";  c #31192E",
":  c #240D3A",
">  c #240B3A",
",  c #241139",
"<  c #2B1836",
"1  c #361B3B",
"2  c #3D203D",
"3  c #382738",
"4  c #34242E",
"5  c #462D2F",
"6  c #47273C",
"7  c #472D39",
"8  c #432A32",
"9  c #54343C",
"0  c #5A373D",
"q  c #5E3939",
"w  c #4C3238",
"e  c #613B3C",
"r  c #5E453F",
"t  c #78592B",
"y  c #65423B",
"u  c #6C463A",
"i  c #744A3A",
"p  c #6A563E",
"a  c #74643C",
"s  c #0B0443",
"d  c #1D004C",
"f  c #2B0D44",
"g  c #260C45",
"h  c #310E4C",
"j  c #330F44",
"k  c #2F1342",
"l  c #3A1A45",
"z  c #35104B",
"x  c #3D194A",
"c  c #39154E",
"v  c #27045A",
"b  c #3C1551",
"n  c #3F1C61",
"m  c #401D43",
"M  c #451B52",
"N  c #442443",
"B  c #482442",
"V  c #4D2B43",
"C  c #492549",
"Z  c #522E42",
"A  c #522B4B",
"S  c #58284C",
"D  c #5D344B",
"F  c #593444",
"G  c #4F2251",
"H  c #572C50",
"J  c #592859",
"K  c #5E3153",
"L  c #4D365B",
"P  c #632F4A",
"I  c #6B3E45",
"U  c #6B3B4C",
"Y  c #65374C",
"T  c #753D4E",
"R  c #643453",
"E  c #6B3951",
"W  c #643058",
"Q  c #733D53",
"!  c #7B3F57",
"~  c #602A5B",
"^  c #694343",
"/  c #7A4C42",
"(  c #74444B",
")  c #7A464C",
"_  c #774949",
"`  c #7C4A4B",
"'  c #744741",
"]  c #6E534C",
"[  c #7A514A",
"{  c #734152",
"}  c #7A4254",
"|  c #7C4C52",
" . c #7B5052",
".. c #7B784A",
"X. c #87563C",
"o. c #935C3C",
"O. c #985E3C",
"+. c #93632E",
"@. c #886C35",
"#. c #89693C",
"$. c #9C6C3C",
"%. c #98643B",
"&. c #8F703E",
"*. c #9C773B",
"=. c #88692B",
"-. c #B07C2C",
";. c #A2693E",
":. c #AB763D",
">. c #AC7D3C",
",. c #A3763A",
"<. c #B97E3B",
"1. c #B47C3D",
"2. c #824D4A",
"3. c #844B48",
"4. c #845444",
"5. c #8C5643",
"6. c #875D44",
"7. c #8D5B43",
"8. c #84524A",
"9. c #8B534C",
"0. c #935B42",
"q. c #935B4C",
"w. c #96594A",
"e. c #894F55",
"r. c #834755",
"t. c #8D5550",
"y. c #915452",
"u. c #9B5E54",
"i. c #8D6244",
"p. c #8C654A",
"a. c #8B6A42",
"s. c #966343",
"d. c #9A6344",
"f. c #9C6D44",
"g. c #9D634D",
"h. c #96674B",
"j. c #9B7547",
"k. c #9E6152",
"l. c #9C6850",
"z. c #817452",
"x. c #9F7050",
"c. c #8C7E4A",
"v. c #A46B43",
"b. c #A1674D",
"n. c #A26B4A",
"m. c #AA6C4C",
"M. c #A16740",
"N. c #B16D43",
"B. c #AC7643",
"V. c #A17E42",
"C. c #AD7B44",
"Z. c #A97A4C",
"A. c #A17A4A",
"S. c #B27740",
"D. c #B47E42",
"F. c #B47B4A",
"G. c #BB7D4A",
"H. c #B87B45",
"J. c #A56E52",
"K. c #AE7251",
"L. c #B67750",
"P. c #AE8C3E",
"I. c #BD833B",
"U. c #BC8B3D",
"Y. c #BB8A36",
"T. c #BA9838",
"R. c #C48F2E",
"E. c #C8893B",
"W. c #C39A3B",
"Q. c #C69A38",
"!. c #D9A82C",
"~. c #DAAF35",
"^. c #D1A538",
"/. c #D9AE37",
"(. c #D7B237",
"). c #DFB936",
"_. c #DBB739",
"`. c #E1AF3E",
"'. c #E2BC36",
"]. c #E4BB3A",
"[. c #EABD3D",
"{. c #E1B82D",
"}. c #EBC43A",
"|. c #ECCB3D",
" X c #E8C235",
".X c #EFD63F",
"XX c #F2D33E",
"oX c #968653",
"OX c #B48D46",
"+X c #BA8A47",
"@X c #BB9149",
"#X c #AB8E51",
"$X c #B39450",
"%X c #BFA64A",
"&X c #C98F44",
"*X c #C48A4B",
"=X c #CA8C4B",
"-X c #C38746",
";X c #CF924E",
":X c #C69B47",
">X c #D29344",
",X c #D69848",
"<X c #C89D51",
"1X c #D69751",
"2X c #E09D4B",
"3X c #CDA744",
"4X c #D5A945",
"5X c #DBB341",
"6X c #C9B356",
"7X c #E9A549",
"8X c #E1BE43",
"9X c #E8A551",
"0X c #EDC845",
"qX c #F8DB46",
"wX c #F5DB4B",
"eX c #FADC4A",
"rX c #F4D645",
"tX c #F5DE50",
"yX c #E6D85A",
"uX c #F5E24C",
"iX c #FCE24B",
"pX c #FFE648",
"aX c #FCE351",
"sX c #FDEB54",
"dX c #FCED5B",
"fX c #FDF45B",
"gX c #FEF95C",
"hX c #FFF954",
"jX c #FAFC64",
"kX c #F9FD6A",
"lX c #F6F976",
"zX c #E5E869",
/* pixels */
"                                                                ",
"                          Z                                     ",
"                          [ ;X  $ i 6.                          ",
"                C q.B.L.X.6 +XG.6.9Xq 5 D.9X1Xp.                ",
"                  2 M.<.>X+X;.H.>X*Xo.E.2XG.^ w 7               ",
"          J.;X;X1Xi e X.O.<.&XO.+Xv.O.E.M.) L.=X=X4.            ",
"          , I 1.E.2X-XB.o.X.<.;.;.0.0.;.T { ( S P f             ",
"        a #X..9 e o.:.<.1.o.5.d.3.4.3.( R A N ..oXp u i         ",
"      =.~.T.W.@.0 5.0.0.w.w.4.3.3.r.Q y.b.h.p.%X_.rXP.4         ",
"    t !.,.y o.D.G.L.m.w.0.0.d.A.6X$XZ.@XH.v.j.Y.W.).P.+         ",
"    t Y.Y.U.f.K.u.e.T $.}.eXyXzXlXlXdXuX4X&Xf.@. X|.@.          ",
"    4 C.C.Z.m.9.` ) X./.rXeXfXjXkXjXdXwX|.W.S.@X5XT.7 y ;       ",
"    > 9 :.:.8.g.) / 4XeXrXeXeXaXsXsXtXwXuXqX+Xf.&.< ' 7X>Xf.9   ",
"  3 +XX.I u 9 ` U $.eXdXjXfXaXqXqXeXsXhXuX0X:X` 2 I S.Y.s.F     ",
"  f.7XO.) U ` q.U :.$.r j._.}.|.rX|.8X>.3 e $.U ` } 2.I g       ",
"8 >Xf._ P Z -Xg.Z Q.#.= % +. XsXgX.XR.* s 6._.U R U D _ %.      ",
"$.s.m 1 1 H.n.D F /.8Xc.#.-..XgXkXgX(.*.OX0X4X( P E 4.>X7X:.    ",
"q * + & 4.9.A I e Q.[.rX[.!.XXfXjXgX.X^.4X+XB.( r.E E ( 9.L.p.  ",
"    & 6 m B ` ` / 1.U.Y.Y.{..XdXjXhXqX(.;.h.` M ! q.9.D l l C , ",
"    :.-X%.;.5.g.7.y I.Y._. X0XaXsXuXqX XP.) N R W E g.N.X.$     ",
"  s.g.( D A v.5.g.i 0 ^. X).rXpXpXpX|.}.,.l f } y.W K Q m.i     ",
"  B & & 1 X.0.| =X) I )._.).j.j.OX%X#XP.3X3 h J u.k.e.1 , I     ",
"      D 8.I 2.=Xn.H #./.(._.] v v n L V.5Xa.M ~ Q k.k.y.@ @     ",
"      % % / F.3.E k.i :XOX3X3X` g g h.<X@Xj.A r.Q } R } V       ",
"        ^ ! G c 5.y.P D.OXOX@X+XN h.<X#X@Xp.S } y.! 1 @ $       ",
"      , : % @ $ 9.Q ' ^ Z.Z.h.( V F i.#Xl.A J J l 1 ;           ",
"              - e.R r.m l 1 w 9.l. .D C b M b b b @             ",
"                1 $ M z M b k (  . .J c h z g @ O #             ",
"                  X # @ z z $ & : f g & X o X                   ",
"                              o . . X X                         ",
"                                                                ",
"                                                                "
};
